<?xml version="1.0" standalone="no"?>
<!DOCTYPE svg PUBLIC "-//W3C//DTD SVG 20010904//EN"
 "http://www.w3.org/TR/2001/REC-SVG-20010904/DTD/svg10.dtd">
<svg version="1.0" xmlns="http://www.w3.org/2000/svg"
 width="260.000000pt" height="260.000000pt" viewBox="0 0 260.000000 260.000000"
 preserveAspectRatio="xMidYMid meet">
<metadata>
Created by potrace 1.11, written by Peter Selinger 2001-2013
</metadata>
<g transform="translate(0.000000,260.000000) scale(0.100000,-0.100000)"
fill="#000000" stroke="none">
<path d="M682 2433 c329 -2 867 -2 1195 0 329 1 60 2 -597 2 -657 0 -926 -1
-598 -2z"/>
<path d="M80 1285 l0 -895 240 0 240 0 0 325 0 325 63 0 63 0 189 -325 190
-325 273 0 c151 0 272 3 270 8 -5 12 -448 672 -485 724 l-34 47 54 34 c65 42
150 127 183 182 84 144 92 347 20 500 -73 154 -221 244 -463 280 -72 11 -192
15 -450 15 l-353 0 0 -895z m705 514 c114 -33 158 -178 89 -296 -35 -60 -102
-90 -221 -99 l-93 -7 0 213 0 213 93 -6 c50 -3 110 -11 132 -18z"/>
<path d="M1460 1390 l0 -740 530 0 530 0 0 160 0 160 -312 2 -313 3 -3 578 -2
577 -215 0 -215 0 0 -740z"/>
<path d="M697 153 c320 -2 846 -2 1170 0 323 1 62 2 -582 2 -643 0 -908 -1
-588 -2z"/>
</g>
</svg>
